Coordinates
version=1
nRows=8
nColumns=42
inDegrees=yes

Units are S.I. units (second, meters, Newtons, ...)
If the header above contains a line with 'inDegrees', this indicates whether rotational values are in degrees (yes) or radians (no).

endheader
time	pelvis_tilt	pelvis_list	pelvis_rotation	pelvis_tx	pelvis_ty	pelvis_tz	hip_flexion_r	hip_adduction_r	hip_rotation_r	knee_angle_r	knee_adduction_r	knee_angle_r_beta	ankle_angle_r	subtalar_angle_r	mtp_angle_r	hip_flexion_l	hip_adduction_l	hip_rotation_l	knee_angle_l	knee_adduction_l	knee_angle_l_beta	ankle_angle_l	subtalar_angle_l	mtp_angle_l	lumbar_extension	lumbar_bending	lumbar_rotation	arm_flex_r	arm_add_r	arm_rot_r	elbow_flex_r	pro_sup_r	wrist_flex_r	wrist_dev_r	arm_flex_l	arm_add_l	arm_rot_l	elbow_flex_l	pro_sup_l	wrist_flex_l	wrist_dev_l
      0.90000000	     14.11863111	     -2.50991869	     -3.14815552	     -0.08128521	      0.97213562	     -0.10345708	    -27.61281059	      7.12297975	     -5.26915140	      3.18891740	     -0.85693352	      0.05565711	     13.51588777	      9.32512557	     -7.72299147	     11.06263855	     -3.35747232	     -2.38819645	     16.35591088	      2.50779665	      0.28546450	     -0.81054778	      2.16733415	     -7.72299147	    -33.47643343	      4.19575090	     12.07728462	      1.50781670	    -26.99686380	     -0.65428932	     76.55973037	     90.00000001	      0.00000000	      0.00000000	    -10.12421392	    -17.60333321	      2.88566272	     55.90348003	     90.00000001	      0.00000000	      0.00000000
      0.91000000	     14.10447222	     -2.77543949	     -3.85794580	     -0.06767069	      0.96942942	     -0.10260425	    -28.34066953	      6.98738960	     -4.96445457	      3.65023192	     -0.71512180	      0.06370857	     14.13524563	      9.23105398	     -7.71442988	     11.10051499	     -3.53662508	     -4.49093805	     13.69179785	      2.16291681	      0.23896695	     -1.09150690	      4.34864989	     -7.71442988	    -33.53358475	      4.15180816	     12.52622545	      2.00531178	    -27.31092967	     -0.01237614	     76.50834248	     90.00000001	      0.00000000	      0.00000000	    -10.83390385	    -17.23259291	      2.30118132	     55.97725859	     90.00000001	      0.00000000	      0.00000000
      0.92000000	     13.78403647	     -3.27181725	     -4.44553590	     -0.05404269	      0.96621731	     -0.10174991	    -28.66470681	      7.23224291	     -4.87742052	      4.28065151	     -0.85830454	      0.07471146	     14.91141783	      9.90587882	     -7.69292343	     11.68198600	     -4.01529717	     -6.67779194	     11.89703731	      1.91044435	      0.20764247	     -0.70945046	      7.02978230	     -7.69292343	    -33.28376054	      4.41136718	     13.07256214	      2.36950246	    -27.58897336	      0.43246951	     76.44908612	     90.00000001	      0.00000000	      0.00000000	    -11.48293898	    -16.93305028	      2.01968164	     56.06335634	     90.00000001	      0.00000000	      0.00000000
      0.93000000	     13.46640740	     -3.64737020	     -5.07427964	     -0.04048031	      0.96324331	     -0.10099089	    -28.95129585	      7.26793997	     -4.68325516	      5.00868156	     -0.91857515	      0.08741798	     15.57433249	     10.23489194	     -7.68700447	     12.05539376	     -4.33798055	     -7.96627133	     10.11994111	      1.93394838	      0.17662629	     -0.83635690	      7.63723650	     -7.68700447	    -33.06931516	      4.53203507	     13.56506373	      2.75371120	    -27.77605477	      0.84109886	     76.31530141	     90.00000001	      0.00000000	      0.00000000	    -12.03485016	    -16.63593187	      1.76760103	     56.07109345	     90.00000001	      0.00000000	      0.00000000
      0.94000000	     13.09106906	     -4.02486571	     -5.66643528	     -0.02672999	      0.96029687	     -0.10021023	    -29.13528260	      7.32841646	     -4.59586633	      5.84336697	     -1.07285915	      0.10198599	     16.17798048	     10.75131990	     -7.68321312	     12.49581983	     -4.67843030	     -9.10326541	      8.88470768	      2.01118190	      0.15506740	     -0.62648564	      7.99707887	     -7.68321312	    -32.76357310	      4.67397805	     14.05319645	      3.10025633	    -27.91750356	      1.14207877	     76.05470761	     90.00000001	      0.00000000	      0.00000000	    -12.54473120	    -16.37156374	      1.61060129	     56.04140757	     90.00000001	      0.00000000	      0.00000000
      0.95000000	     12.88182698	     -4.08434469	     -6.25078355	     -0.01250429	      0.95759213	     -0.09976091	    -29.24823168	      6.90371766	     -5.92557609	      7.14275918	     -1.23710056	      0.12466467	     17.38418280	     13.57490295	     -7.66898386	     12.88533025	     -4.57104939	    -10.94702006	      8.40847461	      1.76665912	      0.14675557	     -0.08689764	      9.40365212	     -7.66898386	    -32.55312743	      4.51097868	     14.29855350	      3.41227264	    -28.01568598	      1.51734302	     75.80069879	     90.00000001	      0.00000000	      0.00000000	    -13.08219667	    -16.11116092	      1.27980536	     56.02711802	     90.00000001	      0.00000000	      0.00000000
      0.96000000	     12.48548371	     -4.32070206	     -6.85014510	      0.00151472	      0.95499152	     -0.09900220	    -29.34562007	      6.71152739	     -5.77557949	      8.11138288	     -1.32425066	      0.14157034	     17.73565135	     14.05547767	     -7.66615038	     13.36920454	     -4.74927220	    -11.81729644	      8.25219609	      1.79740831	      0.14402799	      0.24796796	      9.14931770	     -7.66615038	    -32.20623610	      4.50412822	     14.72010179	      3.65103140	    -28.01894639	      1.68712049	     75.46684880	     90.00000001	      0.00000000	      0.00000000	    -13.41284983	    -15.93123769	      1.28763273	     55.83319603	     90.00000001	      0.00000000	      0.00000000
      0.97000000	     12.12730099	     -4.47530829	     -7.36066711	      0.01571905	      0.95266703	     -0.09855928	    -29.42645144	      6.37359184	     -5.76457636	      9.17524644	     -1.29424906	      0.16013826	     17.90705942	     14.66850758	     -7.66395461	     13.85445621	     -4.74423022	    -12.47351054	      8.60482788	      1.62531990	      0.15018258	      0.46921974	      8.82536661	     -7.66395461	    -31.88872104	      4.47619317	     14.99980761	      3.87708828	    -27.97306805	      1.77593471	     75.12939609	     90.00000001	      0.00000000	      0.00000000	    -13.68918397	    -15.72989709	      1.30003834	     55.61634971	     90.00000001	      0.00000000	      0.00000000
